<svg width="27" height="25" viewBox="0 0 27 25" fill="none" xmlns="http://www.w3.org/2000/svg">
<g id="Facebook / Negative" clip-path="url(#clip0_274_743)">
<path id="Vector" d="M26.8017 12.5639C26.8017 5.69556 20.8523 0.127686 13.5134 0.127686C6.17446 0.127686 0.225098 5.69556 0.225098 12.5639C0.225098 18.771 5.08441 23.916 11.4371 24.849V16.1587H8.06311V12.5639H11.4371V9.82403C11.4371 6.70721 13.421 4.98557 16.4563 4.98557C17.9097 4.98557 19.4308 5.22847 19.4308 5.22847V8.28894H17.7553C16.1046 8.28894 15.5897 9.24764 15.5897 10.2321V12.5639H19.2751L18.686 16.1587H15.5897V24.849C21.9424 23.916 26.8017 18.771 26.8017 12.5639Z" fill="#1D2130"/>
</g>
<defs>
<clipPath id="clip0_274_743">
<rect width="26.5766" height="24.8724" fill="white" transform="translate(0.225098 0.127686)"/>
</clipPath>
</defs>
</svg>
