<svg width="28" height="25" viewBox="0 0 28 25" fill="none" xmlns="http://www.w3.org/2000/svg">
<g id="LinkedIn / Negative" clip-path="url(#clip0_274_747)">
<g id="Group">
<path id="Vector" d="M25.141 0.127808H2.49384C1.40897 0.127808 0.531738 0.929359 0.531738 1.92037V23.2028C0.531738 24.1938 1.40897 25.0002 2.49384 25.0002H25.141C26.2259 25.0002 27.1083 24.1938 27.1083 23.2076V1.92037C27.1083 0.929359 26.2259 0.127808 25.141 0.127808ZM8.41647 21.3228H4.47151V9.4501H8.41647V21.3228ZM6.44399 7.83242C5.17745 7.83242 4.15487 6.87542 4.15487 5.69495C4.15487 4.51448 5.17745 3.55748 6.44399 3.55748C7.70534 3.55748 8.72791 4.51448 8.72791 5.69495C8.72791 6.87056 7.70534 7.83242 6.44399 7.83242ZM23.1789 21.3228H19.2392V15.5516C19.2392 14.1768 19.2132 12.4037 17.1888 12.4037C15.1385 12.4037 14.827 13.9048 14.827 15.4544V21.3228H10.8925V9.4501H14.6713V11.0726H14.7232C15.2475 10.1399 16.5348 9.15377 18.4502 9.15377C22.4418 9.15377 23.1789 11.6119 23.1789 14.8083V21.3228Z" fill="#1D2130"/>
</g>
</g>
<defs>
<clipPath id="clip0_274_747">
<rect width="26.5766" height="24.8724" fill="white" transform="translate(0.531738 0.127808)"/>
</clipPath>
</defs>
</svg>
