<svg width="27" height="25" viewBox="0 0 27 25" fill="none" xmlns="http://www.w3.org/2000/svg">
<g id="Twitter / Negative" clip-path="url(#clip0_274_745)">
<path id="Vector" d="M8.73914 22.6685C18.7656 22.6685 24.2511 14.8925 24.2511 8.15123C24.2511 7.93263 24.2459 7.70916 24.2356 7.49056C25.3027 6.76833 26.2236 5.87374 26.955 4.84884C25.9612 5.26265 24.906 5.53292 23.8255 5.65039C24.9632 5.01218 25.815 4.00958 26.2231 2.82844C25.1528 3.42205 23.9824 3.8408 22.7619 4.06672C21.9396 3.24899 20.8523 2.70755 19.6682 2.52612C18.4841 2.34469 17.2692 2.53338 16.2111 3.063C15.1531 3.59262 14.311 4.43368 13.8149 5.45615C13.3189 6.47862 13.1966 7.62555 13.4669 8.7196C11.2997 8.61783 9.17962 8.09096 7.24401 7.17316C5.3084 6.25537 3.60049 4.96713 2.23099 3.39196C1.53494 4.51508 1.32195 5.84409 1.6353 7.1089C1.94866 8.37371 2.76484 9.4794 3.91798 10.2013C3.05227 10.1755 2.20553 9.9574 1.44771 9.56488V9.62803C1.44693 10.8067 1.88232 11.9492 2.67985 12.8613C3.47738 13.7735 4.58784 14.3991 5.82246 14.6317C5.02052 14.837 4.17885 14.8669 3.36257 14.7191C3.71096 15.7327 4.38879 16.6193 5.30148 17.255C6.21416 17.8908 7.31615 18.244 8.45365 18.2654C6.52251 19.685 4.13698 20.455 1.68129 20.4514C1.2458 20.4508 0.810729 20.4258 0.378418 20.3766C2.87314 21.8745 5.77516 22.67 8.73914 22.6685Z" fill="#1D2130"/>
</g>
<defs>
<clipPath id="clip0_274_745">
<rect width="26.5766" height="24.8724" fill="white" transform="translate(0.378418 0.127808)"/>
</clipPath>
</defs>
</svg>
