<svg width="138" height="31" viewBox="0 0 138 31" fill="none" xmlns="http://www.w3.org/2000/svg">
<g id="Logo" opacity="0.6">
<path d="M33.6927 7.2937H36.8581V22.6107H33.6927V7.2937Z" fill="#212529"/>
<path d="M38.6307 17.3637C38.6307 16.2617 38.9564 15.1845 39.5665 14.2687C40.1766 13.3528 41.0436 12.6396 42.0576 12.2193C43.0716 11.7991 44.187 11.6907 45.2624 11.9081C46.3378 12.1254 47.3247 12.6586 48.0981 13.44C48.8716 14.2215 49.3966 15.216 49.6068 16.2976C49.8169 17.3792 49.7027 18.4991 49.2786 19.5154C48.8545 20.5317 48.1395 21.3987 47.2245 22.0063C46.3094 22.614 45.2353 22.935 44.1384 22.9287C43.4108 22.9344 42.6895 22.7941 42.0166 22.5161C41.3438 22.238 40.7329 21.8278 40.2199 21.3095C39.7069 20.7912 39.3021 20.1752 39.0292 19.4976C38.7563 18.82 38.6208 18.0946 38.6307 17.3637ZM46.5651 17.3637C46.5527 16.8886 46.4011 16.4277 46.1293 16.0388C45.8575 15.6498 45.4776 15.3499 45.0371 15.1767C44.5965 15.0035 44.115 14.9646 43.6525 15.0649C43.1901 15.1652 42.7674 15.4003 42.4373 15.7407C42.1072 16.0811 41.8843 16.5117 41.7965 16.9787C41.7086 17.4457 41.7598 17.9283 41.9436 18.3662C42.1274 18.8042 42.4357 19.1779 42.8298 19.4408C43.2239 19.7036 43.6864 19.8439 44.1595 19.8441C44.4816 19.8504 44.8015 19.7899 45.0992 19.6664C45.397 19.5428 45.6662 19.3589 45.89 19.1261C46.1138 18.8933 46.2874 18.6167 46.3999 18.3134C46.5124 18.0102 46.5615 17.6868 46.544 17.3637H46.5651Z" fill="#212529"/>
<path d="M62.1703 12.1167V22.0913C62.1703 25.6105 59.427 27.1051 56.6521 27.1051C55.6733 27.1858 54.6915 26.9904 53.8172 26.541C52.943 26.0915 52.211 25.4058 51.7036 24.5611L54.373 23.0135C54.5893 23.4516 54.9334 23.8132 55.3594 24.0499C55.7855 24.2866 56.2732 24.3873 56.7576 24.3385C57.0662 24.3767 57.3793 24.3459 57.6747 24.2483C57.9701 24.1508 58.2403 23.9889 58.4661 23.7741C58.692 23.5594 58.8678 23.2972 58.981 23.0063C59.0942 22.7154 59.142 22.4029 59.121 22.0913V21.1267C58.7527 21.5754 58.2853 21.9316 57.756 22.1671C57.2267 22.4026 56.65 22.511 56.0717 22.4835C54.6726 22.4835 53.3307 21.9251 52.3414 20.9312C51.352 19.9372 50.7962 18.5891 50.7962 17.1835C50.7962 15.7778 51.352 14.4298 52.3414 13.4358C53.3307 12.4419 54.6726 11.8835 56.0717 11.8835C56.65 11.856 57.2267 11.9643 57.756 12.1999C58.2853 12.4354 58.7527 12.7916 59.121 13.2403V12.1803L62.1703 12.1167ZM59.121 17.1517C59.1421 16.6446 59.0116 16.1427 58.7465 15.7106C58.4813 15.2786 58.0936 14.936 57.6332 14.7271C57.1727 14.5182 56.6605 14.4525 56.1626 14.5384C55.6646 14.6242 55.2036 14.8578 54.8389 15.209C54.4741 15.5601 54.2222 16.0129 54.1156 16.5091C54.0091 17.0053 54.0527 17.5221 54.2408 17.9932C54.429 18.4642 54.7531 18.868 55.1715 19.1525C55.59 19.437 56.0835 19.5893 56.5887 19.5897C56.9184 19.6136 57.2494 19.5677 57.5603 19.455C57.8713 19.3424 58.1552 19.1655 58.3939 18.9357C58.6325 18.706 58.8205 18.4285 58.9458 18.1212C59.071 17.8139 59.1307 17.4836 59.121 17.1517Z" fill="#212529"/>
<path d="M63.9534 17.3637C63.9534 16.2626 64.2785 15.1862 64.8877 14.2708C65.4968 13.3555 66.3626 12.6422 67.3754 12.2213C68.3882 11.8004 69.5025 11.6908 70.5773 11.9064C71.6521 12.122 72.6391 12.6531 73.4134 13.4324C74.1877 14.2117 74.7144 15.2043 74.9269 16.2845C75.1395 17.3647 75.0283 18.484 74.6074 19.5007C74.1865 20.5174 73.4749 21.3858 72.5626 21.996C71.6502 22.6062 70.5782 22.9308 69.4822 22.9287C68.7533 22.9358 68.0303 22.7966 67.3556 22.5193C66.681 22.2421 66.0682 21.8322 65.5532 21.3139C65.0383 20.7956 64.6315 20.1792 64.3568 19.5009C64.0821 18.8226 63.9449 18.096 63.9534 17.3637ZM71.8879 17.3637C71.8754 16.8881 71.7235 16.4269 71.4513 16.0377C71.179 15.6485 70.7984 15.3486 70.3573 15.1758C69.9162 15.0029 69.4341 14.9646 68.9714 15.0658C68.5087 15.167 68.0861 15.4031 67.7563 15.7445C67.4266 16.086 67.2046 16.5176 67.118 16.9852C67.0314 17.4529 67.084 17.9359 67.2694 18.3736C67.4548 18.8113 67.7647 19.1843 68.1602 19.4459C68.5557 19.7075 69.0192 19.846 69.4928 19.8441C69.8148 19.8504 70.1348 19.7899 70.4325 19.6664C70.7303 19.5428 70.9995 19.3589 71.2233 19.1261C71.447 18.8933 71.6206 18.6167 71.7332 18.3134C71.8457 18.0102 71.8948 17.6869 71.8773 17.3637H71.8879Z" fill="#212529"/>
<path d="M76.4777 9.30765C76.4777 8.93447 76.5878 8.56968 76.7942 8.2594C77.0005 7.94911 77.2939 7.70728 77.637 7.56447C77.9802 7.42166 78.3578 7.3843 78.7222 7.4571C79.0865 7.5299 79.4211 7.7096 79.6838 7.97348C79.9464 8.23735 80.1253 8.57355 80.1978 8.93955C80.2702 9.30555 80.233 9.68493 80.0909 10.0297C79.9487 10.3745 79.708 10.6691 79.3992 10.8765C79.0903 11.0838 78.7272 11.1944 78.3558 11.1944C77.8594 11.1889 77.3848 10.9884 77.0338 10.6357C76.6828 10.2831 76.4831 9.80635 76.4777 9.30765ZM76.7836 12.1166H79.949V22.6107H76.7836V12.1166Z" fill="#212529"/>
<path d="M93.4966 17.3637C93.5321 18.0616 93.4298 18.7597 93.1957 19.4178C92.9616 20.0758 92.6003 20.6809 92.1325 21.1981C91.6647 21.7153 91.0998 22.1345 90.4701 22.4315C89.8405 22.7285 89.1586 22.8975 88.4637 22.9287C87.874 22.9681 87.2831 22.8733 86.735 22.6512C86.1869 22.4291 85.6958 22.0855 85.2984 21.6461V26.8295H82.133V12.1167H85.2984V13.1025C85.6963 12.6644 86.1878 12.3224 86.736 12.1022C87.2841 11.8819 87.8748 11.789 88.4637 11.8305C89.1558 11.8618 89.835 12.0298 90.4625 12.3248C91.09 12.6198 91.6535 13.0361 92.1208 13.5499C92.5882 14.0637 92.9502 14.665 93.1863 15.3194C93.4223 15.9737 93.5278 16.6684 93.4966 17.3637ZM90.3313 17.3637C90.3188 16.8714 90.162 16.3937 89.8804 15.9906C89.5989 15.5874 89.2051 15.2767 88.7486 15.0974C88.292 14.9181 87.7929 14.8782 87.3139 14.9827C86.8348 15.0871 86.3971 15.3313 86.0556 15.6846C85.7141 16.0379 85.484 16.4846 85.3941 16.9687C85.3042 17.4529 85.3586 17.9529 85.5504 18.4061C85.7422 18.8593 86.0629 19.2456 86.4723 19.5165C86.8817 19.7874 87.3615 19.9309 87.8517 19.9289C88.1875 19.9432 88.5225 19.8861 88.8347 19.7612C89.147 19.6364 89.4294 19.4466 89.6635 19.2044C89.8977 18.9622 90.0782 18.673 90.1932 18.3558C90.3083 18.0385 90.3553 17.7005 90.3313 17.3637Z" fill="#212529"/>
<path d="M103.13 19.4625C103.13 21.8793 101.02 22.9075 98.7827 22.9075C97.8704 22.99 96.9544 22.7957 96.1531 22.3497C95.3519 21.9038 94.7021 21.2267 94.2879 20.4059L97.0101 18.8583C97.118 19.2365 97.3518 19.5661 97.6726 19.7918C97.9933 20.0176 98.3815 20.1258 98.7722 20.0985C99.5213 20.0985 99.9011 19.8653 99.9011 19.4413C99.9011 18.2859 94.7627 18.9007 94.7627 15.2649C94.7627 12.9753 96.683 11.8305 98.8566 11.8305C99.6828 11.7933 100.504 11.9816 101.232 12.3754C101.96 12.7692 102.568 13.3538 102.993 14.0671L100.27 15.5087C100.15 15.2352 99.9537 15.0026 99.7046 14.8389C99.4556 14.6753 99.1647 14.5876 98.8671 14.5865C98.3185 14.5865 97.9914 14.7985 97.9914 15.1695C97.9914 16.3779 103.13 15.5829 103.13 19.4625Z" fill="#212529"/>
<path d="M114.599 12.1167V22.6107H111.433V21.6249C111.074 22.0613 110.617 22.4066 110.1 22.6331C109.584 22.8596 109.021 22.9608 108.458 22.9287C106.348 22.9287 104.544 21.4129 104.544 18.5827V12.1167H107.709V18.1057C107.684 18.3561 107.714 18.6089 107.795 18.8467C107.877 19.0845 108.01 19.3017 108.183 19.4831C108.357 19.6645 108.567 19.8059 108.801 19.8975C109.034 19.9891 109.284 20.0288 109.534 20.0137C110.674 20.0137 111.476 19.3353 111.476 17.8937V12.1167H114.599Z" fill="#212529"/>
<path d="M132.536 16.1659V22.6107H129.37V16.4415C129.37 15.3815 128.874 14.7243 127.872 14.7243C126.87 14.7243 126.237 15.4557 126.237 16.6959V22.6107H123.071V16.4415C123.071 15.3815 122.575 14.7243 121.573 14.7243C120.571 14.7243 119.938 15.4557 119.938 16.6959V22.6107H116.772V12.1167H119.938V13.0813C120.265 12.6551 120.694 12.3176 121.183 12.0993C121.673 11.8809 122.21 11.7885 122.744 11.8305C123.28 11.8024 123.813 11.9147 124.292 12.1563C124.771 12.3979 125.18 12.7605 125.477 13.2085C125.825 12.7404 126.285 12.3685 126.814 12.1276C127.344 11.8866 127.926 11.7844 128.505 11.8305C130.974 11.8305 132.536 13.5477 132.536 16.1659Z" fill="#212529"/>
<path d="M14.8379 4.53771V0.0327148H0.699341V30.9847H14.8379V26.4797C11.9416 26.4797 9.16394 25.3238 7.11596 23.2664C5.06798 21.2089 3.91744 18.4184 3.91744 15.5087C3.91744 12.599 5.06798 9.80851 7.11596 7.75104C9.16394 5.69358 11.9416 4.53771 14.8379 4.53771Z" fill="#212529"/>
<path d="M14.8379 4.53771V26.4797C17.7341 26.4797 20.5117 25.3238 22.5597 23.2664C24.6077 21.2089 25.7582 18.4184 25.7582 15.5087C25.7582 12.599 24.6077 9.80851 22.5597 7.75105C20.5117 5.69359 17.7341 4.53771 14.8379 4.53771Z" fill="#212529"/>
<path d="M135.195 12.0531C136.477 12.0531 137.516 11.009 137.516 9.72109C137.516 8.43316 136.477 7.38908 135.195 7.38908C133.913 7.38908 132.873 8.43316 132.873 9.72109C132.873 11.009 133.913 12.0531 135.195 12.0531Z" fill="#212529"/>
</g>
</svg>
