<svg width="134" height="32" viewBox="0 0 134 32" fill="none" xmlns="http://www.w3.org/2000/svg">
<g id="Logo" opacity="0.6">
<path d="M37.9702 9.48191H41.3572V23.1319H37.9702V9.48191ZM42.7077 17.9974C42.7077 14.6164 44.8179 12.5899 47.9833 12.5899C51.1486 12.5899 53.2588 14.6164 53.2588 17.9974C53.2588 21.3784 51.2225 23.4259 47.9833 23.4259C44.7441 23.4259 42.7077 21.4519 42.7077 17.9974ZM49.9036 17.9974C49.9036 16.1389 49.1755 15.0469 48.0149 15.0469C46.8543 15.0469 46.1368 16.0969 46.1368 17.9974C46.1368 19.8979 46.8543 20.9374 48.0149 20.9374C49.1755 20.9374 49.9247 19.8979 49.9247 18.0079L49.9036 17.9974ZM54.6094 23.8354H57.8802C58.0291 24.1858 58.2892 24.4782 58.6207 24.6678C58.9522 24.8573 59.3369 24.9338 59.7161 24.8854C61.0139 24.8854 61.6892 24.1924 61.6892 23.1634V21.2734H61.6998C61.4203 21.8619 60.9683 22.3524 60.4033 22.6804C59.8383 23.0084 59.1868 23.1585 58.5344 23.1109C56.0549 23.1109 54.4089 21.2314 54.4089 17.9974C54.4089 14.7634 55.981 12.7474 58.6294 12.7474C59.2984 12.7118 59.9621 12.8835 60.529 13.2389C61.0959 13.5943 61.5381 14.116 61.7947 14.7319H61.6998V12.8314H65.055V23.0584C65.055 25.5259 62.8604 27.0694 59.6317 27.0694C56.6985 27.0589 54.8204 25.7254 54.6305 23.8459L54.6094 23.8354ZM61.6998 17.9974C61.6998 16.3489 60.9401 15.3094 59.7372 15.3094C58.5344 15.3094 57.7958 16.3594 57.7958 17.9974C57.7958 19.6354 58.5239 20.6014 59.7372 20.6014C60.9506 20.6014 61.6998 19.7089 61.6998 17.9974ZM66.395 17.9974C66.395 14.6164 68.5052 12.5899 71.6706 12.5899C74.8359 12.5899 76.9461 14.6164 76.9461 17.9974C76.9461 21.3784 74.8992 23.4259 71.6706 23.4259C68.4419 23.4259 66.4161 21.4519 66.4161 17.9974H66.395ZM73.5909 17.9974C73.5909 16.1389 72.8523 15.0469 71.7022 15.0469C70.5522 15.0469 69.8241 16.0969 69.8241 17.9974C69.8241 19.8979 70.5416 20.9374 71.7022 20.9374C72.8629 20.9374 73.612 19.8979 73.612 18.0079L73.5909 17.9974ZM78.3178 10.3429C78.3031 9.99958 78.3919 9.65972 78.5728 9.36703C78.7538 9.07435 79.0186 8.84224 79.3332 8.70057C79.6478 8.55889 79.9978 8.51413 80.3382 8.57204C80.6786 8.62995 80.9938 8.78788 81.2432 9.02552C81.4927 9.26316 81.6649 9.56963 81.7379 9.90551C81.8109 10.2414 81.7812 10.5913 81.6527 10.9103C81.5242 11.2292 81.3027 11.5026 81.0168 11.6953C80.7308 11.888 80.3935 11.9911 80.0482 11.9914C79.8275 11.997 79.6079 11.9589 79.4021 11.8793C79.1964 11.7998 79.0085 11.6803 78.8495 11.528C78.6905 11.3756 78.5635 11.1933 78.4758 10.9917C78.3882 10.79 78.3416 10.5731 78.3389 10.3534L78.3178 10.3429ZM78.3178 12.8209H81.7469V23.1739H78.3706L78.3178 12.8209ZM94.0812 17.9974C94.0812 21.3679 92.5618 23.3209 89.9768 23.3209C89.315 23.3615 88.6566 23.1991 88.0906 22.8554C87.5245 22.5118 87.078 22.0036 86.8115 21.3994H86.7482V26.5024H83.3612V12.8524H86.7271V14.7004H86.7904C87.0478 14.0843 87.4899 13.5622 88.0563 13.2052C88.6227 12.8482 89.286 12.6737 89.9557 12.7054C92.6146 12.6844 94.1445 14.6269 94.1445 18.0079L94.0812 17.9974ZM90.631 17.9974C90.631 16.3594 89.8607 15.2989 88.6685 15.2989C87.4762 15.2989 86.7271 16.3489 86.7165 17.9974C86.706 19.6459 87.4762 20.6854 88.6685 20.6854C89.8607 20.6854 90.6943 19.7089 90.6943 18.0079L90.631 17.9974ZM99.8632 12.5794C102.701 12.5794 104.464 13.9129 104.485 16.0549H101.393C101.393 15.3094 100.771 14.8474 99.8421 14.8474C98.9136 14.8474 98.4705 15.2044 98.4705 15.7399C98.4705 16.2754 98.8609 16.4434 99.6417 16.6009L101.815 17.0419C103.925 17.4829 104.77 18.3229 104.77 19.8874C104.77 21.9874 102.818 23.4154 99.916 23.4154C97.0144 23.4154 95.1258 22.0294 94.9886 19.9189H98.27C98.365 20.6854 98.9769 21.1369 99.9687 21.1369C100.961 21.1369 101.425 20.8219 101.425 20.2654C101.425 19.7089 101.108 19.6144 100.296 19.4464L98.3333 19.0369C96.2969 18.6064 95.2313 17.5459 95.2313 15.9604C95.2946 13.9024 97.0672 12.5899 99.9265 12.5899L99.8632 12.5794ZM116.112 23.1634H112.831V21.2209H112.767C112.584 21.8688 112.184 22.4351 111.633 22.8264C111.083 23.2177 110.415 23.4106 109.739 23.3734C109.229 23.3899 108.721 23.299 108.249 23.1064C107.777 22.9139 107.351 22.6242 106.999 22.2564C106.648 21.8885 106.378 21.4508 106.208 20.972C106.039 20.4931 105.973 19.984 106.015 19.4779V12.8314H109.401V18.7534C109.401 19.9714 110.045 20.6329 111.1 20.6329C111.348 20.6311 111.592 20.5764 111.816 20.4725C112.041 20.3687 112.24 20.2182 112.401 20.031C112.562 19.8439 112.681 19.6246 112.75 19.3879C112.818 19.1512 112.835 18.9026 112.799 18.6589V12.8314H116.175L116.112 23.1634ZM117.747 12.8209H121.039V14.8159H121.113C121.295 14.1768 121.685 13.6158 122.221 13.2206C122.758 12.8254 123.411 12.6184 124.078 12.6319C124.748 12.5739 125.416 12.7667 125.95 13.1726C126.485 13.5784 126.848 14.1681 126.969 14.8264H127.117C127.328 14.1646 127.752 13.5907 128.325 13.1938C128.897 12.797 129.585 12.5994 130.282 12.6319C130.745 12.6144 131.207 12.6944 131.637 12.8666C132.067 13.0389 132.455 13.2996 132.777 13.6317C133.099 13.9637 133.347 14.3596 133.504 14.7935C133.661 15.2274 133.725 15.6894 133.69 16.1494V23.1739H130.282V17.0104C130.282 15.9604 129.786 15.3724 128.826 15.3724C128.613 15.3689 128.402 15.4113 128.207 15.4967C128.012 15.582 127.838 15.7083 127.697 15.8669C127.555 16.0255 127.45 16.2126 127.388 16.4154C127.327 16.6182 127.309 16.8319 127.338 17.0419V23.1739H124.11V16.9789C124.11 15.9289 123.593 15.3724 122.664 15.3724C122.449 15.3707 122.236 15.4148 122.039 15.5018C121.843 15.5888 121.667 15.7166 121.524 15.8768C121.381 16.0369 121.274 16.2255 121.211 16.4301C121.147 16.6347 121.128 16.8505 121.155 17.0629V23.1739H117.769L117.747 12.8209Z" fill="#212529"/>
<path d="M31.2702 10.3745C31.2703 8.28468 30.6361 6.24355 29.4508 4.51846C28.2654 2.79337 26.5842 1.46476 24.6272 0.706655C22.6703 -0.0514509 20.5289 -0.203703 18.4835 0.269839C16.4381 0.74338 14.5841 1.82064 13.1644 3.36051H-0.00341797V31.0175H27.7988V18.092C28.8901 17.1207 29.7632 15.9314 30.3614 14.6016C30.9595 13.2718 31.2692 11.8314 31.2702 10.3745ZM25.9207 10.3745C25.9228 11.3759 25.6263 12.3554 25.0688 13.1891C24.5112 14.0228 23.7177 14.6731 22.7886 15.0577C21.8595 15.4424 20.8366 15.5441 19.8494 15.35C18.8622 15.1559 17.955 14.6748 17.2427 13.9674C16.5304 13.26 16.045 12.3582 15.8479 11.3762C15.6508 10.3942 15.7509 9.37607 16.1356 8.45068C16.5202 7.52529 17.172 6.73425 18.0086 6.17767C18.8451 5.62109 19.8288 5.32401 20.8351 5.324C22.1821 5.324 23.474 5.85577 24.4275 6.80262C25.3809 7.74947 25.9179 9.03407 25.9207 10.3745ZM22.4494 25.694H5.34601V8.68401H10.5583C10.4576 9.24204 10.4046 9.80757 10.4 10.3745C10.4028 13.1278 11.5031 15.7675 13.4595 17.7144C15.4158 19.6613 18.0684 20.7562 20.8351 20.759C21.376 20.7562 21.9158 20.7105 22.4494 20.6225V25.694Z" fill="#212529"/>
</g>
</svg>
