<svg width="126" height="29" viewBox="0 0 126 29" fill="none" xmlns="http://www.w3.org/2000/svg">
<g id="Logo" opacity="0.6">
<path d="M36.4695 8.29332H39.6348V21.0298H36.4695V8.29332ZM40.8904 16.2208C40.8904 13.0708 42.8318 11.1913 45.8284 11.1913C48.8249 11.1913 50.7663 13.0708 50.7663 16.2208C50.7663 19.3708 48.8671 21.2608 45.8284 21.2608C42.7896 21.2608 40.8904 19.4233 40.8904 16.2208ZM47.5904 16.2208C47.5904 14.4883 46.9046 13.4698 45.8284 13.4698C44.7521 13.4698 44.0769 14.5198 44.0769 16.2208C44.0769 17.9218 44.7416 18.9508 45.8284 18.9508C46.9151 18.9508 47.5904 17.9848 47.5904 16.2313V16.2208ZM51.9586 21.6493H54.9973C55.1419 21.969 55.3864 22.2337 55.6944 22.404C56.0024 22.5743 56.3574 22.641 56.7066 22.5943C57.9094 22.5943 58.5425 21.9433 58.5425 20.9983V19.2343H58.4792C58.227 19.775 57.8177 20.228 57.3043 20.5349C56.7909 20.8419 56.1968 20.9886 55.5987 20.9563C53.288 20.9563 51.7581 19.2028 51.7581 16.1893C51.7581 13.1758 53.2141 11.2753 55.6409 11.2753C56.2577 11.2513 56.8672 11.4154 57.3877 11.7457C57.9081 12.0759 58.3148 12.5566 58.553 13.1233V11.3698H61.7184V20.9248C61.7184 23.2243 59.682 24.6523 56.6749 24.6523C53.8789 24.6523 52.1379 23.4028 51.9586 21.6598V21.6493ZM58.553 16.2103C58.553 14.6773 57.8461 13.7113 56.7277 13.7113C55.6093 13.7113 54.9234 14.6668 54.9234 16.2103C54.9234 17.7538 55.5987 18.6253 56.7277 18.6253C57.8566 18.6253 58.553 17.7748 58.553 16.2208V16.2103ZM62.9106 16.2103C62.9106 13.0603 64.8521 11.1808 67.8486 11.1808C70.8451 11.1808 72.7971 13.0603 72.7971 16.2103C72.7971 19.3603 70.8979 21.2503 67.8486 21.2503C64.7993 21.2503 62.9106 19.4233 62.9106 16.2208V16.2103ZM69.6106 16.2103C69.6106 14.4778 68.9248 13.4593 67.8486 13.4593C66.7724 13.4593 66.1498 14.5198 66.1498 16.2313C66.1498 17.9428 66.8146 18.9613 67.8908 18.9613C68.967 18.9613 69.6106 17.9848 69.6106 16.2313V16.2103ZM73.9999 9.08082C73.9916 8.76278 74.0784 8.44946 74.2492 8.18056C74.4201 7.91166 74.6673 7.6993 74.9596 7.5704C75.2519 7.44151 75.5761 7.40187 75.891 7.45653C76.2059 7.51119 76.4975 7.65767 76.7287 7.87741C76.9599 8.09715 77.1203 8.38026 77.1896 8.69084C77.2589 9.00142 77.234 9.32548 77.118 9.62195C77.002 9.91842 76.8002 10.174 76.5381 10.3561C76.276 10.5383 75.9655 10.639 75.6459 10.6453C75.434 10.6598 75.2214 10.6305 75.0214 10.5593C74.8214 10.4882 74.6384 10.3766 74.4838 10.2316C74.3293 10.0867 74.2065 9.91149 74.1232 9.71706C74.0399 9.52263 73.9979 9.31317 73.9999 9.10182V9.08082ZM73.9999 11.3908H77.1652V21.0298H73.9999V11.3908ZM88.6554 16.2103C88.6554 19.3603 87.2521 21.1558 84.8465 21.1558C84.2296 21.1952 83.6154 21.0452 83.0871 20.7259C82.5587 20.4067 82.1416 19.9336 81.8921 19.3708H81.8288V24.1168H78.6635V11.3698H81.8288V13.0918H81.8921C82.13 12.5197 82.5391 12.0344 83.064 11.7018C83.5888 11.3693 84.2038 11.2057 84.8254 11.2333C87.2521 11.2753 88.6976 13.0813 88.6976 16.2313L88.6554 16.2103ZM85.4901 16.2103C85.4901 14.6773 84.7832 13.7008 83.6753 13.7008C82.5674 13.7008 81.8605 14.6878 81.8499 16.2103C81.8394 17.7328 82.5674 18.7093 83.6753 18.7093C84.7832 18.7093 85.4901 17.7538 85.4901 16.2313V16.2103ZM94.0893 11.1703C96.7165 11.1703 98.3097 12.4093 98.3836 14.3938H95.5031C95.5031 13.7113 94.9333 13.2808 94.0576 13.2808C93.1819 13.2808 92.7915 13.6168 92.7915 14.1103C92.7915 14.6038 93.1396 14.7613 93.8466 14.9083L95.8724 15.3178C97.8033 15.7273 98.6262 16.5043 98.6262 17.9638C98.6262 19.9588 96.8009 21.2398 94.1104 21.2398C91.4198 21.2398 89.6578 19.9588 89.5206 17.9953H92.5699C92.6649 18.7093 93.2346 19.1293 94.1631 19.1293C95.0916 19.1293 95.5137 18.8248 95.5137 18.3208C95.5137 17.8168 95.2182 17.7118 94.4585 17.5543L92.6332 17.1658C90.7445 16.7773 89.7527 15.7798 89.7527 14.3098C89.7738 12.4198 91.4726 11.1913 94.0893 11.1913V11.1703ZM109.188 21.0088H106.139V19.2133H106.075C105.908 19.8161 105.538 20.3438 105.027 20.7086C104.517 21.0734 103.896 21.2535 103.269 21.2188C102.788 21.246 102.307 21.1702 101.858 20.9964C101.409 20.8227 101.003 20.5551 100.667 20.2117C100.33 19.8683 100.072 19.4571 99.9097 19.0059C99.747 18.5547 99.6835 18.074 99.7236 17.5963V11.3698H102.889V16.8718C102.889 18.0163 103.48 18.6253 104.461 18.6253C104.691 18.6258 104.919 18.5773 105.128 18.4831C105.338 18.3889 105.525 18.2512 105.677 18.0792C105.829 17.9072 105.942 17.7048 106.009 17.4857C106.076 17.2666 106.095 17.0358 106.065 16.8088V11.3698H109.23L109.188 21.0088ZM110.718 11.3698H113.778V13.2283H113.841C114.009 12.6335 114.37 12.1108 114.869 11.7423C115.367 11.3737 115.974 11.1799 116.595 11.1913C117.226 11.141 117.854 11.3291 118.352 11.7182C118.851 12.1073 119.184 12.6689 119.285 13.2913H119.349C119.54 12.6623 119.936 12.1146 120.475 11.7344C121.014 11.3541 121.664 11.1631 122.324 11.1913C122.755 11.1769 123.183 11.2528 123.582 11.4141C123.981 11.5753 124.342 11.8183 124.64 12.1273C124.939 12.4363 125.169 12.8043 125.315 13.2074C125.461 13.6106 125.521 14.0398 125.489 14.4673V21.0298H122.324V15.3073C122.324 14.2573 121.849 13.7743 120.963 13.7743C120.765 13.7727 120.57 13.8132 120.389 13.8932C120.209 13.9732 120.047 14.0908 119.916 14.2381C119.785 14.3854 119.688 14.5589 119.63 14.747C119.572 14.9351 119.555 15.1333 119.581 15.3283V21.0298H116.574V15.2653C116.574 14.2993 116.099 13.7743 115.234 13.7743C115.034 13.7744 114.836 13.8166 114.654 13.8982C114.472 13.9799 114.309 14.099 114.176 14.2479C114.044 14.3967 113.944 14.5718 113.885 14.7617C113.825 14.9515 113.807 15.1518 113.83 15.3493V21.0298H110.665L110.718 11.3698Z" fill="#212529"/>
<path d="M27.6171 8.87088C27.0802 7.64906 26.3695 6.51041 25.5069 5.48988C24.2317 3.93624 22.6404 2.66894 20.8376 1.77142C19.0349 0.873891 17.0616 0.366478 15.0475 0.282574C13.0335 0.198671 11.0245 0.540177 9.15263 1.28462C7.2808 2.02907 5.58861 3.15957 4.18744 4.60172C2.78628 6.04387 1.7079 7.76497 1.02329 9.65174C0.338674 11.5385 0.0633481 13.5482 0.215434 15.5485C0.367519 17.5488 0.943567 19.4943 1.90566 21.2571C2.86776 23.0199 4.19408 24.56 5.79735 25.7759C6.82609 26.5717 7.96281 27.2186 9.17371 27.6974C10.8714 28.3897 12.6884 28.7464 14.5231 28.7474C18.3104 28.739 21.9398 27.2367 24.6158 24.5698C27.2918 21.9028 28.796 18.2888 28.7988 14.5199C28.8016 12.5758 28.3992 10.6523 27.6171 8.87088ZM14.5126 3.16938C16.1602 3.1692 17.7879 3.52757 19.2817 4.21938C18.9174 4.376 18.5345 4.4854 18.1422 4.54488C16.8514 4.73083 15.6556 5.32721 14.7333 6.24501C13.811 7.16281 13.2117 8.3528 13.0249 9.63738C12.9429 10.3578 12.6136 11.028 12.0927 11.5349C11.5718 12.0418 10.8911 12.3544 10.1655 12.4199C8.87469 12.6058 7.6789 13.2022 6.75663 14.12C5.83436 15.0378 5.23507 16.2278 5.04822 17.5124C4.98496 18.1974 4.69126 18.8411 4.21468 19.3394C3.39238 17.6103 3.02298 15.7023 3.14086 13.793C3.25874 11.8836 3.86006 10.035 4.88886 8.41911C5.91767 6.80322 7.34053 5.47257 9.02502 4.55102C10.7095 3.62947 12.6009 3.14695 14.5231 3.14838L14.5126 3.16938ZM5.7868 21.8699C5.91341 21.7544 6.04003 21.6494 6.16664 21.5234C7.10533 20.6177 7.70786 19.4222 7.87592 18.1319C7.94407 17.4066 8.26948 16.7291 8.79387 16.2209C9.29848 15.6982 9.97768 15.377 10.7036 15.3179C11.9945 15.1319 13.1903 14.5355 14.1125 13.6177C15.0348 12.6999 15.6341 11.51 15.8209 10.2254C15.8666 9.46677 16.1937 8.75206 16.7389 8.21988C17.2559 7.70732 17.9416 7.39784 18.6697 7.34838C19.8556 7.18601 20.9616 6.66138 21.8351 5.84688C22.8297 6.66805 23.6724 7.65592 24.3252 8.76588C24.2851 8.8198 24.2391 8.8691 24.188 8.91288C23.6843 9.44018 23.006 9.76838 22.2782 9.83688C20.9861 10.0196 19.7885 10.6149 18.8656 11.5333C17.9427 12.4517 17.3445 13.6435 17.1609 14.9294C17.0866 15.6522 16.7634 16.3273 16.2461 16.8401C15.7288 17.353 15.0493 17.6721 14.3227 17.7434C13.0281 17.9279 11.8278 18.5231 10.9002 19.4405C9.9726 20.358 9.36712 21.5487 9.17371 22.8359C9.11693 23.349 8.93984 23.8418 8.65671 24.2744C7.57416 23.6348 6.6046 22.8224 5.7868 21.8699ZM14.5126 25.9229C13.4419 25.924 12.3764 25.7756 11.3472 25.4819C11.6993 24.8288 11.9282 24.117 12.0225 23.3819C12.0965 22.6606 12.4181 21.9869 12.9333 21.4742C13.4484 20.9616 14.1255 20.6415 14.8502 20.5679C16.143 20.384 17.3411 19.7886 18.2655 18.8706C19.1898 17.9526 19.7907 16.7615 19.9781 15.4754C20.052 14.7541 20.3737 14.0804 20.8888 13.5677C21.404 13.0551 22.081 12.735 22.8058 12.6614C23.7786 12.5354 24.7058 12.175 25.5069 11.6114C25.9517 13.2892 26.0044 15.0461 25.6609 16.7473C25.3174 18.4485 24.587 20.0488 23.5255 21.4255C22.4641 22.8021 21.0998 23.9185 19.5375 24.689C17.9752 25.4595 16.2562 25.8636 14.5126 25.8704V25.9229Z" fill="#212529"/>
</g>
</svg>
