<svg width="138" height="31" viewBox="0 0 138 31" fill="none" xmlns="http://www.w3.org/2000/svg">
<g id="Logo" opacity="0.6">
<path d="M33.3516 7.2937H36.5169V22.6107H33.3516V7.2937Z" fill="#212529"/>
<path d="M38.2895 17.3637C38.2895 16.2617 38.6152 15.1845 39.2253 14.2687C39.8354 13.3528 40.7024 12.6396 41.7164 12.2193C42.7304 11.7991 43.8458 11.6907 44.9212 11.9081C45.9966 12.1254 46.9835 12.6586 47.757 13.44C48.5304 14.2215 49.0554 15.216 49.2656 16.2976C49.4757 17.3792 49.3615 18.4991 48.9374 19.5154C48.5133 20.5317 47.7984 21.3987 46.8833 22.0063C45.9682 22.614 44.8941 22.935 43.7972 22.9287C43.0696 22.9344 42.3483 22.7941 41.6754 22.5161C41.0026 22.238 40.3917 21.8278 39.8787 21.3095C39.3658 20.7912 38.9609 20.1752 38.688 19.4976C38.4151 18.82 38.2796 18.0946 38.2895 17.3637ZM46.2239 17.3637C46.2115 16.8886 46.0599 16.4277 45.7881 16.0388C45.5163 15.6498 45.1364 15.3499 44.6959 15.1767C44.2554 15.0035 43.7738 14.9646 43.3114 15.0649C42.849 15.1652 42.4263 15.4003 42.0961 15.7407C41.766 16.0811 41.5431 16.5117 41.4553 16.9787C41.3675 17.4457 41.4187 17.9283 41.6024 18.3662C41.7862 18.8042 42.0945 19.1779 42.4886 19.4408C42.8827 19.7036 43.3452 19.8439 43.8183 19.8441C44.1404 19.8504 44.4603 19.7899 44.758 19.6664C45.0558 19.5428 45.325 19.3589 45.5488 19.1261C45.7726 18.8933 45.9462 18.6167 46.0587 18.3134C46.1713 18.0102 46.2203 17.6868 46.2028 17.3637H46.2239Z" fill="#212529"/>
<path d="M61.8291 12.1167V22.0913C61.8291 25.6105 59.0858 27.1051 56.3109 27.1051C55.3321 27.1858 54.3503 26.9904 53.4761 26.541C52.6018 26.0915 51.8698 25.4058 51.3624 24.5611L54.0318 23.0135C54.2481 23.4516 54.5922 23.8132 55.0183 24.0499C55.4443 24.2866 55.932 24.3873 56.4164 24.3385C56.725 24.3767 57.0381 24.3459 57.3335 24.2483C57.6289 24.1508 57.8991 23.9889 58.125 23.7741C58.3508 23.5594 58.5266 23.2972 58.6398 23.0063C58.753 22.7154 58.8008 22.4029 58.7798 22.0913V21.1267C58.4115 21.5754 57.9441 21.9316 57.4148 22.1671C56.8855 22.4026 56.3088 22.511 55.7306 22.4835C54.3314 22.4835 52.9895 21.9251 52.0002 20.9312C51.0108 19.9372 50.455 18.5891 50.455 17.1835C50.455 15.7778 51.0108 14.4298 52.0002 13.4358C52.9895 12.4419 54.3314 11.8835 55.7306 11.8835C56.3088 11.856 56.8855 11.9643 57.4148 12.1999C57.9441 12.4354 58.4115 12.7916 58.7798 13.2403V12.1803L61.8291 12.1167ZM58.7798 17.1517C58.8009 16.6446 58.6705 16.1427 58.4053 15.7106C58.1402 15.2786 57.7524 14.936 57.292 14.7271C56.8315 14.5182 56.3194 14.4525 55.8214 14.5384C55.3234 14.6242 54.8624 14.8578 54.4977 15.209C54.1329 15.5601 53.881 16.0129 53.7745 16.5091C53.6679 17.0053 53.7115 17.5221 53.8997 17.9932C54.0878 18.4642 54.412 18.868 54.8304 19.1525C55.2488 19.437 55.7423 19.5893 56.2476 19.5897C56.5772 19.6136 56.9082 19.5677 57.2192 19.455C57.5301 19.3424 57.814 19.1655 58.0527 18.9357C58.2913 18.706 58.4793 18.4285 58.6046 18.1212C58.7298 17.8139 58.7895 17.4836 58.7798 17.1517Z" fill="#212529"/>
<path d="M63.6122 17.3637C63.6122 16.2626 63.9374 15.1862 64.5465 14.2708C65.1556 13.3555 66.0214 12.6422 67.0342 12.2213C68.047 11.8004 69.1613 11.6908 70.2361 11.9064C71.3109 12.122 72.2979 12.6531 73.0722 13.4324C73.8465 14.2117 74.3732 15.2043 74.5858 16.2845C74.7983 17.3647 74.6871 18.484 74.2662 19.5007C73.8453 20.5174 73.1337 21.3858 72.2214 21.996C71.3091 22.6062 70.237 22.9308 69.141 22.9287C68.4121 22.9358 67.6891 22.7966 67.0145 22.5193C66.3398 22.2421 65.727 21.8322 65.2121 21.3139C64.6971 20.7956 64.2903 20.1792 64.0156 19.5009C63.7409 18.8226 63.6038 18.096 63.6122 17.3637ZM71.5467 17.3637C71.5342 16.8881 71.3823 16.4269 71.1101 16.0377C70.8378 15.6485 70.4573 15.3486 70.0161 15.1758C69.575 15.0029 69.0929 14.9646 68.6302 15.0658C68.1675 15.167 67.7449 15.4031 67.4152 15.7445C67.0855 16.086 66.8634 16.5176 66.7768 16.9852C66.6902 17.4529 66.7429 17.9359 66.9283 18.3736C67.1137 18.8113 67.4235 19.1843 67.819 19.4459C68.2145 19.7075 68.6781 19.846 69.1516 19.8441C69.4736 19.8504 69.7936 19.7899 70.0913 19.6664C70.3891 19.5428 70.6583 19.3589 70.8821 19.1261C71.1059 18.8933 71.2794 18.6167 71.392 18.3134C71.5045 18.0102 71.5536 17.6869 71.5361 17.3637H71.5467Z" fill="#212529"/>
<path d="M76.1365 9.30765C76.1365 8.93447 76.2466 8.56968 76.453 8.2594C76.6594 7.94911 76.9527 7.70728 77.2959 7.56447C77.639 7.42166 78.0167 7.3843 78.381 7.4571C78.7453 7.5299 79.0799 7.7096 79.3426 7.97348C79.6053 8.23735 79.7841 8.57355 79.8566 8.93955C79.9291 9.30555 79.8919 9.68493 79.7497 10.0297C79.6076 10.3745 79.3668 10.6691 79.058 10.8765C78.7491 11.0838 78.386 11.1944 78.0146 11.1944C77.5182 11.1889 77.0436 10.9884 76.6926 10.6357C76.3416 10.2831 76.142 9.80635 76.1365 9.30765ZM76.4425 12.1166H79.6078V22.6107H76.4425V12.1166Z" fill="#212529"/>
<path d="M93.1554 17.3637C93.1909 18.0616 93.0886 18.7597 92.8545 19.4178C92.6204 20.0758 92.2591 20.6809 91.7913 21.1981C91.3236 21.7153 90.7586 22.1345 90.129 22.4315C89.4993 22.7285 88.8174 22.8975 88.1225 22.9287C87.5328 22.9681 86.9419 22.8733 86.3938 22.6512C85.8457 22.4291 85.3546 22.0855 84.9572 21.6461V26.8295H81.7918V12.1167H84.9572V13.1025C85.3551 12.6644 85.8466 12.3224 86.3948 12.1022C86.9429 11.8819 87.5336 11.789 88.1225 11.8305C88.8146 11.8618 89.4938 12.0298 90.1213 12.3248C90.7488 12.6198 91.3123 13.0361 91.7797 13.5499C92.247 14.0637 92.6091 14.665 92.8451 15.3194C93.0812 15.9737 93.1866 16.6684 93.1554 17.3637ZM89.9901 17.3637C89.9776 16.8714 89.8208 16.3937 89.5392 15.9906C89.2577 15.5874 88.864 15.2767 88.4074 15.0974C87.9508 14.9181 87.4517 14.8782 86.9727 14.9827C86.4936 15.0871 86.0559 15.3313 85.7144 15.6846C85.3729 16.0379 85.1428 16.4846 85.0529 16.9687C84.9631 17.4529 85.0174 17.9529 85.2092 18.4061C85.401 18.8593 85.7217 19.2456 86.1311 19.5165C86.5405 19.7874 87.0203 19.9309 87.5106 19.9289C87.8463 19.9432 88.1813 19.8861 88.4935 19.7612C88.8058 19.6364 89.0882 19.4466 89.3223 19.2044C89.5565 18.9622 89.737 18.673 89.8521 18.3558C89.9671 18.0385 90.0142 17.7005 89.9901 17.3637Z" fill="#212529"/>
<path d="M102.789 19.4625C102.789 21.8793 100.678 22.9075 98.4415 22.9075C97.5292 22.99 96.6132 22.7957 95.812 22.3497C95.0107 21.9038 94.3609 21.2267 93.9467 20.4059L96.6689 18.8583C96.7768 19.2365 97.0106 19.5661 97.3314 19.7918C97.6521 20.0176 98.0403 20.1258 98.431 20.0985C99.1801 20.0985 99.5599 19.8653 99.5599 19.4413C99.5599 18.2859 94.4215 18.9007 94.4215 15.2649C94.4215 12.9753 96.3418 11.8305 98.5154 11.8305C99.3416 11.7933 100.162 11.9816 100.891 12.3754C101.619 12.7692 102.227 13.3538 102.651 14.0671L99.9292 15.5087C99.809 15.2352 99.6125 15.0026 99.3634 14.8389C99.1144 14.6753 98.8235 14.5876 98.5259 14.5865C97.9773 14.5865 97.6502 14.7985 97.6502 15.1695C97.6502 16.3779 102.789 15.5829 102.789 19.4625Z" fill="#212529"/>
<path d="M114.258 12.1167V22.6107H111.092V21.6249C110.733 22.0613 110.276 22.4066 109.759 22.6331C109.242 22.8596 108.68 22.9608 108.117 22.9287C106.007 22.9287 104.202 21.4129 104.202 18.5827V12.1167H107.368V18.1057C107.343 18.3561 107.372 18.6089 107.454 18.8467C107.536 19.0845 107.668 19.3017 107.842 19.4831C108.016 19.6645 108.226 19.8059 108.459 19.8975C108.693 19.9891 108.943 20.0288 109.193 20.0137C110.333 20.0137 111.134 19.3353 111.134 17.8937V12.1167H114.258Z" fill="#212529"/>
<path d="M132.195 16.1659V22.6107H129.029V16.4415C129.029 15.3815 128.533 14.7243 127.531 14.7243C126.529 14.7243 125.896 15.4557 125.896 16.6959V22.6107H122.73V16.4415C122.73 15.3815 122.234 14.7243 121.232 14.7243C120.23 14.7243 119.596 15.4557 119.596 16.6959V22.6107H116.431V12.1167H119.596V13.0813C119.924 12.6551 120.352 12.3176 120.842 12.0993C121.332 11.8809 121.869 11.7885 122.403 11.8305C122.938 11.8024 123.472 11.9147 123.951 12.1563C124.43 12.3979 124.838 12.7605 125.136 13.2085C125.484 12.7404 125.944 12.3685 126.473 12.1276C127.003 11.8866 127.584 11.7844 128.164 11.8305C130.633 11.8305 132.195 13.5477 132.195 16.1659Z" fill="#212529"/>
<path d="M14.4967 4.53771V0.0327148H0.358154V30.9847H14.4967V26.4797C11.6004 26.4797 8.82275 25.3238 6.77477 23.2664C4.72679 21.2089 3.57625 18.4184 3.57625 15.5087C3.57625 12.599 4.72679 9.80851 6.77477 7.75104C8.82275 5.69358 11.6004 4.53771 14.4967 4.53771Z" fill="#212529"/>
<path d="M14.4967 4.53771V26.4797C17.393 26.4797 20.1705 25.3238 22.2185 23.2664C24.2665 21.2089 25.417 18.4184 25.417 15.5087C25.417 12.599 24.2665 9.80851 22.2185 7.75105C20.1705 5.69359 17.393 4.53771 14.4967 4.53771Z" fill="#212529"/>
<path d="M134.854 12.0531C136.135 12.0531 137.175 11.009 137.175 9.72109C137.175 8.43316 136.135 7.38908 134.854 7.38908C133.572 7.38908 132.532 8.43316 132.532 9.72109C132.532 11.009 133.572 12.0531 134.854 12.0531Z" fill="#212529"/>
</g>
</svg>
