<svg width="124" height="25" viewBox="0 0 124 25" fill="none" xmlns="http://www.w3.org/2000/svg">
<g id="Logo" opacity="0.6">
<path d="M40.199 20.202C39.5748 20.2355 38.9574 20.0596 38.4464 19.7028C38.2329 19.5459 38.0611 19.3399 37.9459 19.1025C37.8307 18.8652 37.7756 18.6036 37.7852 18.3404V8.69957C37.7801 8.65876 37.7845 8.61732 37.798 8.57843C37.8115 8.53953 37.8338 8.5042 37.8631 8.47512C37.8924 8.44603 37.9281 8.42397 37.9673 8.4106C38.0066 8.39723 38.0484 8.39292 38.0896 8.39797H39.8527C40.0521 8.39797 40.1466 8.50197 40.1466 8.69957V17.5916C40.1466 17.9868 40.325 18.1844 40.6923 18.1844C40.848 18.1907 41.0038 18.1732 41.1541 18.1324C41.3639 18.1324 41.4794 18.1948 41.4899 18.382L41.6473 19.682C41.6549 19.7199 41.6541 19.7589 41.6452 19.7965C41.6362 19.8341 41.6192 19.8694 41.5954 19.9C41.5715 19.9305 41.5413 19.9556 41.5068 19.9736C41.4723 19.9917 41.4343 20.0021 41.3954 20.0044C41.0092 20.1308 40.6057 20.1974 40.199 20.202Z" fill="#212529"/>
<path d="M50.1165 19.0892C49.2306 19.8146 48.1173 20.2114 46.9681 20.2114C45.8189 20.2114 44.7056 19.8146 43.8197 19.0892C43.041 18.3102 42.6042 17.2581 42.6042 16.1616C42.6042 15.0652 43.041 14.013 43.8197 13.234C44.7074 12.5124 45.82 12.118 46.9681 12.118C48.1163 12.118 49.2289 12.5124 50.1165 13.234C50.8773 14.0202 51.302 15.0672 51.302 16.1564C51.302 17.2456 50.8773 18.2927 50.1165 19.0788V19.0892ZM45.4779 17.7164C45.889 18.0855 46.4239 18.2899 46.9786 18.2899C47.5333 18.2899 48.0682 18.0855 48.4794 17.7164C48.8515 17.2925 49.0564 16.7495 49.0564 16.1876C49.0564 15.6257 48.8515 15.0828 48.4794 14.6588C48.0682 14.2898 47.5333 14.0854 46.9786 14.0854C46.4239 14.0854 45.889 14.2898 45.4779 14.6588C45.1058 15.0828 44.9008 15.6257 44.9008 16.1876C44.9008 16.7495 45.1058 17.2925 45.4779 17.7164Z" fill="#212529"/>
<path d="M61.01 12.3812C61.2094 12.3812 61.3039 12.4852 61.3039 12.6828V20.1396C61.3222 20.6429 61.2272 21.1439 61.0257 21.6062C60.8242 22.0685 60.5213 22.4806 60.139 22.8124C59.2904 23.5294 58.1991 23.901 57.085 23.8524C56.0787 23.8874 55.0859 23.6151 54.241 23.0724C53.8802 22.8376 53.5719 22.5318 53.3354 22.174C53.0989 21.8161 52.9392 21.414 52.8661 20.9924C52.8661 20.7844 52.8661 20.6908 53.1495 20.6908H54.9126C54.9875 20.6933 55.06 20.7172 55.1214 20.7597C55.1829 20.8021 55.2306 20.8613 55.2589 20.93C55.3733 21.2458 55.6012 21.5088 55.8991 21.6684C56.2621 21.854 56.6661 21.9469 57.0745 21.9388C57.3209 21.9522 57.5676 21.9167 57.8 21.8346C58.0325 21.7525 58.2461 21.6252 58.4283 21.4604C58.5949 21.2879 58.7244 21.0838 58.8092 20.8604C58.894 20.637 58.9322 20.3988 58.9216 20.1604V19.5052C58.2903 19.9653 57.522 20.2032 56.7387 20.1812C56.1905 20.2009 55.6438 20.1107 55.1317 19.9159C54.6195 19.7211 54.1523 19.4257 53.7582 19.0476C53.0016 18.2719 52.5786 17.2352 52.5786 16.1564C52.5786 15.0775 53.0016 14.0409 53.7582 13.2652C54.1542 12.8903 54.622 12.5978 55.1338 12.4049C55.6457 12.212 56.1914 12.1226 56.7387 12.142C57.5447 12.1209 58.3336 12.3742 58.9741 12.8596V12.6932C58.9693 12.6533 58.9734 12.6129 58.9864 12.5748C58.9993 12.5368 59.0206 12.5021 59.0487 12.4732C59.0768 12.4443 59.1111 12.422 59.149 12.4079C59.1869 12.3938 59.2276 12.3882 59.2679 12.3916L61.01 12.3812ZM56.9381 18.33C57.2085 18.3383 57.4774 18.2876 57.7258 18.1816C57.9743 18.0756 58.1962 17.9167 58.3759 17.7164C58.7248 17.2699 58.9141 16.7211 58.9141 16.1564C58.9141 15.5916 58.7248 15.0429 58.3759 14.5964C58.1968 14.3987 57.9762 14.2423 57.7297 14.1381C57.4831 14.0339 57.2165 13.9844 56.9486 13.9932C56.6751 13.9847 56.403 14.0351 56.1511 14.1411C55.8993 14.247 55.6736 14.4059 55.4898 14.6068C55.1033 15.0339 54.9 15.5935 54.9231 16.1668C54.9042 16.7344 55.1029 17.2881 55.4793 17.7164C55.6636 17.9167 55.8893 18.0752 56.1411 18.1811C56.3928 18.287 56.6647 18.3378 56.9381 18.33Z" fill="#212529"/>
<path d="M70.3608 19.0892C69.4731 19.8108 68.3605 20.2052 67.2124 20.2052C66.0643 20.2052 64.9516 19.8108 64.064 19.0892C63.3026 18.3013 62.8775 17.2525 62.8775 16.1616C62.8775 15.0707 63.3026 14.0219 64.064 13.234C64.9525 12.5142 66.0648 12.121 67.2124 12.121C68.36 12.121 69.4723 12.5142 70.3608 13.234C71.1215 14.0201 71.5462 15.0672 71.5462 16.1564C71.5462 17.2456 71.1215 18.2926 70.3608 19.0788V19.0892ZM65.7116 17.7164C65.9128 17.906 66.15 18.0543 66.4094 18.1525C66.6688 18.2506 66.9453 18.2968 67.2229 18.2884C67.4987 18.2955 67.7732 18.2486 68.0307 18.1504C68.2882 18.0523 68.5237 17.9048 68.7236 17.7164C69.0896 17.2896 69.2906 16.7477 69.2906 16.1876C69.2906 15.6275 69.0896 15.0856 68.7236 14.6588C68.5237 14.4704 68.2882 14.3229 68.0307 14.2247C67.7732 14.1266 67.4987 14.0797 67.2229 14.0868C66.9453 14.0783 66.6688 14.1245 66.4094 14.2227C66.15 14.3209 65.9128 14.4691 65.7116 14.6588C65.3456 15.0856 65.1446 15.6275 65.1446 16.1876C65.1446 16.7477 65.3456 17.2896 65.7116 17.7164Z" fill="#212529"/>
<path d="M75.3353 10.6132C75.0579 10.8538 74.7018 10.9865 74.3331 10.9865C73.9644 10.9865 73.6083 10.8538 73.3308 10.6132C73.2051 10.4956 73.1049 10.3537 73.0364 10.1964C72.9679 10.039 72.9326 9.8694 72.9326 9.69802C72.9326 9.52663 72.9679 9.35705 73.0364 9.19967C73.1049 9.0423 73.2051 8.90045 73.3308 8.78281C73.6111 8.5482 73.9662 8.41949 74.3331 8.41949C74.7 8.41949 75.0551 8.5482 75.3353 8.78281C75.4611 8.90045 75.5613 9.0423 75.6298 9.19967C75.6983 9.35705 75.7336 9.52663 75.7336 9.69802C75.7336 9.8694 75.6983 10.039 75.6298 10.1964C75.5613 10.3537 75.4611 10.4956 75.3353 10.6132ZM75.5557 20.202C74.9319 20.2323 74.3155 20.0568 73.8031 19.7028C73.5928 19.5436 73.424 19.3369 73.3109 19.0999C73.1977 18.8629 73.1433 18.6025 73.1524 18.3404V12.6828C73.1473 12.642 73.1517 12.6006 73.1652 12.5617C73.1787 12.5228 73.2009 12.4874 73.2303 12.4584C73.2596 12.4293 73.2953 12.4072 73.3345 12.3938C73.3738 12.3805 73.4156 12.3762 73.4568 12.3812H75.2199C75.4193 12.3812 75.5137 12.4852 75.5137 12.6828V17.5916C75.5137 17.9868 75.6922 18.1844 76.049 18.1844C76.2081 18.1901 76.3672 18.1726 76.5212 18.1324C76.7311 18.1324 76.8466 18.1948 76.8571 18.382L77.0145 19.682C77.0221 19.7199 77.0213 19.759 77.0124 19.7966C77.0034 19.8342 76.9864 19.8695 76.9626 19.9C76.9387 19.9305 76.9085 19.9557 76.874 19.9737C76.8395 19.9917 76.8015 20.0022 76.7626 20.0044C76.373 20.1316 75.9659 20.1982 75.5557 20.202Z" fill="#212529"/>
<path d="M83.5003 12.1316C84.051 12.1101 84.6005 12.1984 85.1161 12.3913C85.6317 12.5843 86.1029 12.8779 86.5018 13.2548C87.2439 14.0441 87.6566 15.0828 87.6566 16.1616C87.6566 17.2404 87.2439 18.2792 86.5018 19.0684C86.1049 19.4487 85.6342 19.7452 85.1183 19.9401C84.6024 20.1349 84.052 20.224 83.5003 20.202C82.7144 20.2194 81.9443 19.982 81.3069 19.526V23.2804C81.3069 23.478 81.202 23.5716 81.0026 23.5716H79.2395C79.1992 23.5791 79.1578 23.5767 79.1187 23.5647C79.0796 23.5527 79.044 23.5315 79.0151 23.5028C78.9862 23.4741 78.9647 23.4389 78.9526 23.4001C78.9405 23.3614 78.9381 23.3203 78.9456 23.2804V14.7524C78.958 14.669 78.9505 14.5839 78.9237 14.5039C78.897 14.4238 78.8517 14.3511 78.7916 14.2915C78.7314 14.2319 78.658 14.187 78.5773 14.1605C78.4965 14.134 78.4106 14.1266 78.3264 14.1388H77.9801C77.7492 14.1388 77.6338 14.0556 77.6338 13.8892V12.662C77.6283 12.5861 77.6493 12.5106 77.6932 12.4482C77.7372 12.3857 77.8014 12.3401 77.8752 12.3188C78.2382 12.1881 78.6224 12.1246 79.0086 12.1316C79.3937 12.0979 79.7803 12.1788 80.1187 12.3641C80.4571 12.5494 80.732 12.8306 80.9081 13.1716C81.2462 12.8328 81.6504 12.5658 82.0961 12.387C82.5418 12.2081 83.0196 12.1213 83.5003 12.1316ZM81.8632 17.7164C82.0503 17.9102 82.2751 18.0645 82.524 18.1698C82.7729 18.2752 83.0408 18.3295 83.3114 18.3295C83.5821 18.3295 83.85 18.2752 84.0989 18.1698C84.3478 18.0645 84.5726 17.9102 84.7597 17.7164C85.1539 17.2808 85.361 16.7099 85.3369 16.1252C85.3644 15.5401 85.1568 14.9679 84.7597 14.534C84.5726 14.3402 84.3478 14.186 84.0989 14.0806C83.85 13.9753 83.5821 13.9209 83.3114 13.9209C83.0408 13.9209 82.7729 13.9753 82.524 14.0806C82.2751 14.186 82.0503 14.3402 81.8632 14.534C81.4813 14.9756 81.2825 15.5442 81.3069 16.1252C81.2856 16.7058 81.484 17.2733 81.8632 17.7164Z" fill="#212529"/>
<path d="M92.6096 20.202C91.6675 20.2403 90.7333 20.017 89.9125 19.5572C89.5831 19.3606 89.3027 19.093 89.0919 18.7744C88.8812 18.4557 88.7455 18.0941 88.6951 17.7164C88.6951 17.5084 88.7686 17.4044 88.9994 17.4044H90.5422C90.6156 17.4072 90.6867 17.4301 90.7478 17.4704C90.809 17.5108 90.8576 17.5671 90.8885 17.6332C91.1089 18.1948 91.6861 18.4756 92.6096 18.4756C92.9318 18.4902 93.2526 18.4259 93.5437 18.2884C93.6441 18.2434 93.7304 18.1722 93.7932 18.0825C93.8561 17.9927 93.8932 17.8878 93.9005 17.7788C93.9005 17.5084 93.7326 17.3212 93.3967 17.1964C92.9984 17.065 92.5866 16.9778 92.1689 16.9364C91.674 16.8809 91.1833 16.794 90.6996 16.6764C90.2292 16.5709 89.8016 16.3282 89.4717 15.9796C89.2775 15.7426 89.1345 15.4686 89.0516 15.1746C88.9688 14.8805 88.9479 14.5728 88.9902 14.2704C89.0325 13.968 89.1372 13.6774 89.2977 13.4169C89.4581 13.1563 89.671 12.9312 89.923 12.7556C90.6794 12.278 91.567 12.0454 92.4627 12.09C93.33 12.0609 94.188 12.2735 94.9395 12.7036C95.2423 12.8735 95.5031 13.1083 95.7028 13.3908C95.9025 13.6732 96.0361 13.9963 96.0939 14.3364C96.0939 14.5444 95.9994 14.6484 95.8105 14.6484H94.2573C94.1919 14.6522 94.1269 14.6364 94.0707 14.603C94.0145 14.5696 93.9698 14.5202 93.9425 14.4612C93.8387 14.2148 93.6433 14.0175 93.3967 13.91C93.1186 13.7658 92.808 13.6942 92.4942 13.702C92.1865 13.6854 91.8797 13.7462 91.6021 13.8788C91.5043 13.9162 91.4201 13.9817 91.3602 14.067C91.3004 14.1522 91.2677 14.2533 91.2663 14.3572C91.273 14.4994 91.3256 14.6357 91.4162 14.7462C91.5069 14.8566 91.6309 14.9353 91.7701 14.9708C92.1731 15.1213 92.5921 15.226 93.0189 15.2828C93.5098 15.3468 93.9967 15.437 94.4777 15.5532C94.948 15.6587 95.3757 15.9014 95.7056 16.25C95.882 16.442 96.0183 16.6668 96.1066 16.9114C96.1949 17.1559 96.2333 17.4154 96.2198 17.6748C96.2289 18.0343 96.1437 18.39 95.9727 18.7071C95.8016 19.0243 95.5505 19.2921 95.2438 19.4844C94.4597 19.9832 93.5409 20.2335 92.6096 20.202Z" fill="#212529"/>
<path d="M107.313 19.682C107.319 19.7189 107.317 19.7566 107.308 19.793C107.299 19.8293 107.283 19.8635 107.261 19.8935C107.238 19.9235 107.21 19.9488 107.177 19.9678C107.145 19.9869 107.109 19.9993 107.071 20.0044C106.688 20.1283 106.289 20.1949 105.886 20.202C105.487 20.2429 105.084 20.1811 104.716 20.0226C104.348 19.8641 104.028 19.6142 103.787 19.2972C103.045 19.9288 102.087 20.2528 101.11 20.202C100.657 20.2227 100.204 20.1492 99.7815 19.9862C99.3586 19.8232 98.9748 19.5743 98.6547 19.2556C98.3368 18.9216 98.0902 18.5274 97.9297 18.0968C97.7692 17.6661 97.6981 17.2077 97.7206 16.7492V12.6828C97.7206 12.4852 97.8151 12.3812 98.0145 12.3812H99.7776C99.977 12.3812 100.071 12.4852 100.071 12.6828V16.4372C100.052 16.9049 100.214 17.3624 100.523 17.7164C100.677 17.8786 100.865 18.0061 101.073 18.0904C101.281 18.1747 101.505 18.2139 101.73 18.2052C101.96 18.2152 102.189 18.1798 102.406 18.1013C102.622 18.0228 102.82 17.9025 102.989 17.7476C103.149 17.5843 103.273 17.3902 103.355 17.1773C103.436 16.9644 103.472 16.7373 103.461 16.51V12.6828C103.461 12.4852 103.556 12.3812 103.755 12.3812H105.539C105.739 12.3812 105.833 12.4852 105.833 12.6828V17.5812C105.833 17.9868 106.011 18.1844 106.358 18.1844C106.52 18.1906 106.683 18.1731 106.841 18.1324C106.88 18.1214 106.922 18.1194 106.962 18.1266C107.003 18.1338 107.041 18.15 107.075 18.174C107.108 18.1981 107.135 18.2293 107.155 18.2653C107.174 18.3013 107.185 18.3412 107.187 18.382L107.313 19.682Z" fill="#212529"/>
<path d="M123.989 19.682C123.998 19.7193 123.999 19.7581 123.992 19.7957C123.984 19.8334 123.968 19.8689 123.945 19.8997C123.922 19.9305 123.892 19.9559 123.858 19.974C123.824 19.9921 123.786 20.0025 123.747 20.0044C123.358 20.1301 122.951 20.1968 122.541 20.202C121.917 20.2339 121.3 20.0582 120.788 19.7028C120.567 19.5506 120.387 19.3466 120.264 19.1089C120.141 18.8713 120.08 18.6073 120.085 18.3404V15.8964C120.107 15.4301 119.949 14.9728 119.644 14.6172C119.497 14.4547 119.315 14.3265 119.112 14.242C118.908 14.1575 118.689 14.1187 118.469 14.1284C118.27 14.121 118.073 14.1583 117.891 14.2376C117.709 14.3168 117.548 14.436 117.419 14.586C117.142 14.9345 117.001 15.37 117.02 15.8132V19.6508C117.02 19.8484 116.926 19.9524 116.727 19.9524H114.953C114.912 19.9575 114.87 19.9532 114.831 19.9398C114.791 19.9264 114.756 19.9044 114.726 19.8753C114.697 19.8462 114.675 19.8109 114.661 19.772C114.648 19.7331 114.643 19.6916 114.649 19.6508V15.8964C114.671 15.4352 114.526 14.9811 114.239 14.6172C114.111 14.4644 113.951 14.3413 113.77 14.2568C113.588 14.1723 113.39 14.1285 113.19 14.1284C112.976 14.1199 112.762 14.1562 112.563 14.2351C112.364 14.3139 112.184 14.4335 112.035 14.586C111.735 14.9234 111.581 15.3641 111.605 15.8132V19.6508C111.61 19.6916 111.606 19.7331 111.592 19.772C111.579 19.8109 111.557 19.8462 111.527 19.8753C111.498 19.9044 111.462 19.9264 111.423 19.9398C111.384 19.9532 111.342 19.9575 111.301 19.9524H109.59C109.391 19.9524 109.296 19.8484 109.296 19.6508V14.7524C109.309 14.669 109.301 14.5839 109.274 14.5039C109.248 14.4238 109.202 14.3511 109.142 14.2915C109.082 14.2319 109.009 14.187 108.928 14.1605C108.847 14.134 108.761 14.1266 108.677 14.1388H108.331C108.1 14.1388 107.984 14.0556 107.984 13.8892V12.662C107.979 12.5861 108 12.5106 108.044 12.4481C108.088 12.3857 108.152 12.34 108.226 12.3188C108.589 12.188 108.973 12.1246 109.359 12.1316C109.73 12.1003 110.102 12.1735 110.433 12.3428C110.763 12.5121 111.039 12.7706 111.227 13.0884C111.581 12.7559 112.001 12.4993 112.459 12.3346C112.918 12.17 113.406 12.1009 113.893 12.1316C114.366 12.1087 114.837 12.1966 115.27 12.3882C115.702 12.5797 116.082 12.8695 116.38 13.234C116.728 12.8599 117.154 12.567 117.63 12.3763C118.105 12.1857 118.618 12.1021 119.13 12.1316C119.588 12.1104 120.045 12.1835 120.474 12.3464C120.902 12.5093 121.291 12.7584 121.617 13.078C121.936 13.4113 122.183 13.8053 122.344 14.2362C122.504 14.667 122.575 15.1257 122.551 15.5844V17.5916C122.551 17.9868 122.729 18.1844 123.065 18.1844C123.228 18.1919 123.391 18.1744 123.548 18.1324C123.765 18.1324 123.88 18.2156 123.894 18.382L123.989 19.682Z" fill="#212529"/>
<path d="M0.927842 11.0292C1.70211 7.94529 3.4953 5.20671 6.02188 3.24953C8.54846 1.29236 11.6632 0.229126 14.8701 0.229126C18.077 0.229126 21.1917 1.29236 23.7183 3.24953C26.2449 5.20671 28.038 7.94529 28.8123 11.0292H27.5529C25.4285 10.9982 23.3476 11.6274 21.6024 12.8284C21.5017 12.9007 21.3966 12.9667 21.2876 13.026H21.1407C21.0317 12.9667 20.9265 12.9007 20.8258 12.8284C19.0652 11.6552 16.9917 11.0286 14.8701 11.0286C12.7484 11.0286 10.6749 11.6552 8.91432 12.8284C8.8136 12.9007 8.70846 12.9667 8.59948 13.026H8.45255C8.34358 12.9667 8.23843 12.9007 8.13771 12.8284C6.39258 11.6274 4.31167 10.9982 2.18721 11.0292H0.927842ZM25.2861 17.55C25.9326 17.0511 26.7338 16.7901 27.5529 16.8116H29.2426V13.4732H27.5529C26.1102 13.4559 24.7003 13.901 23.5335 14.742C22.8768 15.2218 22.0824 15.4806 21.2666 15.4806C20.4508 15.4806 19.6564 15.2218 18.9997 14.742C17.8033 13.9167 16.3804 13.4742 14.9225 13.4742C13.4647 13.4742 12.0418 13.9167 10.8453 14.742C10.1887 15.2218 9.39431 15.4806 8.57849 15.4806C7.76267 15.4806 6.96828 15.2218 6.31163 14.742C5.13035 13.8902 3.70033 13.4446 2.23968 13.4732H0.497559V16.8116H2.18721C3.00633 16.7901 3.80758 17.0511 4.45407 17.55C5.64837 18.376 7.06966 18.8188 8.52602 18.8188C9.98238 18.8188 11.4037 18.376 12.598 17.55C13.2453 17.0526 14.046 16.7918 14.8648 16.8116C15.6842 16.7884 16.486 17.0496 17.1317 17.55C18.3282 18.3754 19.751 18.8179 21.2089 18.8179C22.6667 18.8179 24.0896 18.3754 25.2861 17.55ZM25.2861 23.5196C25.9326 23.0207 26.7338 22.7597 27.5529 22.7812H29.2426V19.4428H27.5529C26.1102 19.4255 24.7003 19.8706 23.5335 20.7116C22.8768 21.1914 22.0824 21.4502 21.2666 21.4502C20.4508 21.4502 19.6564 21.1914 18.9997 20.7116C17.8033 19.8863 16.3804 19.4438 14.9225 19.4438C13.4647 19.4438 12.0418 19.8863 10.8453 20.7116C10.1887 21.1914 9.39431 21.4502 8.57849 21.4502C7.76267 21.4502 6.96828 21.1914 6.31163 20.7116C5.13035 19.8598 3.70033 19.4142 2.23968 19.4428H0.497559V22.7812H2.18721C3.00633 22.7597 3.80758 23.0207 4.45407 23.5196C5.64837 24.3456 7.06966 24.7884 8.52602 24.7884C9.98238 24.7884 11.4037 24.3456 12.598 23.5196C13.2453 23.0223 14.046 22.7614 14.8648 22.7812C15.6842 22.758 16.486 23.0192 17.1317 23.5196C18.3282 24.345 19.751 24.7875 21.2089 24.7875C22.6667 24.7875 24.0896 24.345 25.2861 23.5196Z" fill="#212529"/>
</g>
</svg>
